<?xml version="1.0" encoding="UTF-8" standalone="no"?> <svg width="64" height="64" viewBox="0 0 64 64" fill="none" xmlns="http://www.w3.org/2000/svg">
<path d="M21 34H43C46.713 34 50.274 35.475 52.8995 38.1005C55.525 40.726 57 44.287 57 48V62H7V48C7 44.287 8.475 40.726 11.1005 38.1005C13.726 35.475 17.287 34 21 34V34Z" fill="#48CAE4"/>
<path d="M50 54V53C49.9997 51.2272 49.4101 49.5048 48.324 48.1037C47.2378 46.7025 45.7168 45.7022 44 45.26V39C44.001 37.1779 43.3722 35.4115 42.22 34H38.64C39.0675 34.3742 39.41 34.8354 39.6446 35.3529C39.8791 35.8703 40.0003 36.4319 40 37V45.26C38.2832 45.7022 36.7622 46.7025 35.676 48.1037C34.5899 49.5048 34.0003 51.2272 34 53V53.82C31.2059 53.3477 28.669 51.9018 26.8388 49.7385C25.0085 47.5751 24.0029 44.8338 24 42V34H21C17.287 34 13.726 35.475 11.1005 38.1005C8.475 40.726 7 44.287 7 48V62H57V54H50ZM46 54H38V53C38 51.9391 38.4214 50.9217 39.1716 50.1716C39.9217 49.4214 40.9391 49 42 49C43.0609 49 44.0783 49.4214 44.8284 50.1716C45.5786 50.9217 46 51.9391 46 53V54Z" fill="#00B4D8"/>
<path d="M32 54H30C29.7348 54 29.4804 53.8946 29.2929 53.7071C29.1054 53.5196 29 53.2652 29 53C29 52.7348 29.1054 52.4804 29.2929 52.2929C29.4804 52.1054 29.7348 52 30 52H32C32.2652 52 32.5196 52.1054 32.7071 52.2929C32.8946 52.4804 33 52.7348 33 53C33 53.2652 32.8946 53.5196 32.7071 53.7071C32.5196 53.8946 32.2652 54 32 54Z" fill="#00B4D8"/>
<path d="M32.83 53.56C32.7369 53.6944 32.613 53.8044 32.4685 53.881C32.3241 53.9576 32.1634 53.9984 32 54H30C29.7348 54 29.4804 53.8946 29.2929 53.7071C29.1053 53.5196 29 53.2652 29 53C28.9987 52.8149 29.0496 52.6333 29.1469 52.4758C29.2442 52.3184 29.3839 52.1916 29.55 52.11C30.5631 52.7576 31.6692 53.2466 32.83 53.56V53.56Z" fill="#0096C7"/>
<path d="M32 49H30C29.7348 49 29.4804 48.8946 29.2929 48.7071C29.1054 48.5196 29 48.2652 29 48C29 47.7348 29.1054 47.4804 29.2929 47.2929C29.4804 47.1054 29.7348 47 30 47H32C32.2652 47 32.5196 47.1054 32.7071 47.2929C32.8946 47.4804 33 47.7348 33 48C33 48.2652 32.8946 48.5196 32.7071 48.7071C32.5196 48.8946 32.2652 49 32 49Z" fill="#00B4D8"/>
<path d="M32 59H30C29.7348 59 29.4804 58.8946 29.2929 58.7071C29.1054 58.5196 29 58.2652 29 58C29 57.7348 29.1054 57.4804 29.2929 57.2929C29.4804 57.1054 29.7348 57 30 57H32C32.2652 57 32.5196 57.1054 32.7071 57.2929C32.8946 57.4804 33 57.7348 33 58C33 58.2652 32.8946 58.5196 32.7071 58.7071C32.5196 58.8946 32.2652 59 32 59Z" fill="#0096C7"/>
<path d="M33 40H31V62H33V40Z" fill="#ADE8F4"/>
<path d="M32 40L38 36V34H42L36 47L32 40Z" fill="#00B4D8"/>
<path d="M32 40L26 36V34H22L24 47L32 40Z" fill="#00B4D8"/>
<path d="M32 40L38 36V34H42L38 46L32 40Z" fill="#ADE8F4"/>
<path d="M32 40L26 36V34H22L26 46L32 40Z" fill="#ADE8F4"/>
<path d="M46 38V46H42V38C42 36.9391 41.5786 35.9217 40.8284 35.1716C40.0783 34.4214 39.0609 34 38 34H25C23.9391 34 22.9217 34.4214 22.1716 35.1716C21.4214 35.9217 21 36.9391 21 38V50H17V38C17 35.8783 17.8429 33.8434 19.3431 32.3431C20.8434 30.8429 22.8783 30 25 30H38C40.1217 30 42.1566 30.8429 43.6569 32.3431C45.1571 33.8434 46 35.8783 46 38Z" fill="#95D5B2"/>
<path d="M46 42V46H42V38C42 36.9391 41.5786 35.9217 40.8284 35.1716C40.0783 34.4214 39.0609 34 38 34H23C21.9391 34 20.9217 34.4214 20.1716 35.1716C19.4214 35.9217 19 36.9391 19 38V43C19.0016 43.5299 19.2128 44.0377 19.5875 44.4125C19.9623 44.7872 20.4701 44.9984 21 45V50H17V38C17 35.8783 17.8429 33.8434 19.3431 32.3431C20.8434 30.8429 22.8783 30 25 30H36C38.1217 30 40.1566 30.8429 41.6569 32.3431C43.1571 33.8434 44 35.8783 44 38V40C44.0016 40.5299 44.2128 41.0377 44.5875 41.4125C44.9623 41.7872 45.4701 41.9984 46 42Z" fill="#52B788"/>
<path d="M36 52V55C36 55.5304 36.2107 56.0391 36.5858 56.4142C36.9609 56.7893 37.4696 57 38 57H40C40.5304 57 41.0391 56.7893 41.4142 56.4142C41.7893 56.0391 42 55.5304 42 55C42 54.4696 41.7893 53.9609 41.4142 53.5858C41.0391 53.2107 40.5304 53 40 53V52C40 50.9391 40.4214 49.9217 41.1716 49.1716C41.9217 48.4214 42.9391 48 44 48V48C45.0609 48 46.0783 48.4214 46.8284 49.1716C47.5786 49.9217 48 50.9391 48 52V53C47.4696 53 46.9609 53.2107 46.5858 53.5858C46.2107 53.9609 46 54.4696 46 55C46 55.5304 46.2107 56.0391 46.5858 56.4142C46.9609 56.7893 47.4696 57 48 57H50C50.5304 57 51.0391 56.7893 51.4142 56.4142C51.7893 56.0391 52 55.5304 52 55V52C52 49.8783 51.1571 47.8434 49.6569 46.3431C48.1566 44.8429 46.1217 44 44 44C41.8783 44 39.8434 44.8429 38.3431 46.3431C36.8429 47.8434 36 49.8783 36 52Z" fill="#BBEFC1"/>
<path d="M19 57C21.7614 57 24 54.7614 24 52C24 49.2386 21.7614 47 19 47C16.2386 47 14 49.2386 14 52C14 54.7614 16.2386 57 19 57Z" fill="#D0D8DA"/>
<path d="M19 54C20.1046 54 21 53.1046 21 52C21 50.8954 20.1046 50 19 50C17.8954 50 17 50.8954 17 52C17 53.1046 17.8954 54 19 54Z" fill="#E9F1F2"/>
<path d="M50 55V52C49.9985 50.0525 49.2866 48.1725 47.9979 46.7124C46.7092 45.2523 44.9322 44.3124 43 44.069C41.0678 44.3124 39.2908 45.2523 38.0021 46.7124C36.7134 48.1725 36.0015 50.0525 36 52V55C36 55.5304 36.2107 56.0391 36.5858 56.4142C36.9609 56.7893 37.4696 57 38 57H40C40.5304 57 41.0391 56.7893 41.4142 56.4142C41.7893 56.0391 42 55.5304 42 55C42 54.4696 41.7893 53.9609 41.4142 53.5858C41.0391 53.2107 40.5304 53 40 53V52C40 50.9391 40.4214 49.9217 41.1716 49.1716C41.9217 48.4214 42.9391 48 44 48C45.0609 48 46.0783 48.4214 46.8284 49.1716C47.5786 49.9217 48 50.9391 48 52V53C47.4696 53 46.9609 53.2107 46.5858 53.5858C46.2107 53.9609 46 54.4696 46 55C46 55.5304 46.2107 56.0391 46.5858 56.4142C46.9609 56.7893 47.4696 57 48 57H49V56.723C49.3031 56.5487 49.5551 56.2977 49.7306 55.9953C49.9061 55.6929 49.999 55.3497 50 55V55Z" fill="#95D5B2"/>
<path d="M38 36L32 40L26 36V30H38V36Z" fill="#EDB88E"/>
<path d="M38 31.55C36.0704 33.5839 33.4388 34.8067 30.64 34.97C32.3649 36.2008 34.4125 36.8995 36.53 36.98L32 40L26 36V30H38V31.55Z" fill="#DA9367"/>
<path d="M17 3H37C39.6522 3 42.1957 4.05357 44.0711 5.92893C45.9464 7.8043 47 10.3478 47 13C47 15.1217 46.1571 17.1566 44.6569 18.6569C43.1566 20.1571 41.1217 21 39 21H26C23.6131 21 21.3239 20.0518 19.636 18.364C17.9482 16.6761 17 14.3869 17 12V3Z" fill="#93999A"/>
<path d="M44.637 12.657C44.8226 13.1547 45.1086 13.609 45.4773 13.9914C45.8459 14.3739 46.2894 14.6763 46.78 14.88C46.359 16.6257 45.3626 18.1788 43.9512 19.289C42.5398 20.3993 40.7957 21.002 39 21H26C23.6131 21 21.3239 20.0518 19.636 18.364C17.9482 16.6761 17 14.3869 17 12V3H29C29 7.189 34.828 10.623 42.255 10.971C42.6592 10.9941 43.0534 11.1063 43.4092 11.2996C43.765 11.4929 44.0736 11.7624 44.313 12.089V12.089C44.4417 12.2658 44.5503 12.4563 44.637 12.657V12.657Z" fill="#656B76"/>
<path d="M32 33C29.0826 33 26.2847 31.8411 24.2218 29.7782C22.1589 27.7153 21 24.9174 21 22V14C22.5248 14 24.0237 13.6051 25.3506 12.8538C26.6776 12.1026 27.7874 11.0205 28.572 9.713L29 9L30.3 9.931C34.0056 12.5781 38.446 14.0008 43 14V22C43 24.9174 41.8411 27.7153 39.7782 29.7782C37.7153 31.8411 34.9174 33 32 33Z" fill="#F9DBAF"/>
<path d="M25 15.02V19C24.9992 20.4448 25.2832 21.8755 25.8357 23.2105C26.3882 24.5454 27.1985 25.7583 28.2201 26.7799C29.2417 27.8015 30.4546 28.6118 31.7895 29.1643C33.1245 29.7168 34.5552 30.0008 36 30C37.5299 30.0045 39.0432 29.6841 40.44 29.06C38.9908 30.7938 37.0428 32.0392 34.8609 32.6269C32.679 33.2146 30.369 33.1161 28.2451 32.3447C26.1211 31.5734 24.2863 30.1666 22.99 28.3158C21.6937 26.4649 20.9989 24.2597 21 22V14C22.525 13.9986 24.0236 13.6024 25.35 12.85C26.6791 12.1025 27.7893 11.0199 28.57 9.71L29 9L30.3 9.93C34.0057 12.5772 38.4459 14.0002 43 14V16C38.4459 16.0002 34.0057 14.5772 30.3 11.93L29 11L28.57 11.71C27.7174 13.1291 26.4794 14.2769 25 15.02V15.02Z" fill="#EDB88E"/>
<path d="M43 16H45C45.5304 16 46.0391 16.2107 46.4142 16.5858C46.7893 16.9609 47 17.4696 47 18C47 19.0609 46.5786 20.0783 45.8284 20.8284C45.0783 21.5786 44.0609 22 43 22V16Z" fill="#F9DBAF"/>
<path d="M19 16H21V22C19.9391 22 18.9217 21.5786 18.1716 20.8284C17.4214 20.0783 17 19.0609 17 18C17 17.4696 17.2107 16.9609 17.5858 16.5858C17.9609 16.2107 18.4696 16 19 16V16Z" fill="#EDB88E"/>
<path d="M27 24C29.2091 24 31 22.2091 31 20C31 17.7909 29.2091 16 27 16C24.7909 16 23 17.7909 23 20C23 22.2091 24.7909 24 27 24Z" fill="#ADE8F4"/>
<path d="M37 24C39.2091 24 41 22.2091 41 20C41 17.7909 39.2091 16 37 16C34.7909 16 33 17.7909 33 20C33 22.2091 34.7909 24 37 24Z" fill="#ADE8F4"/>
<path d="M39.828 22.828C39.0736 23.5566 38.0632 23.9598 37.0144 23.9507C35.9656 23.9416 34.9624 23.5209 34.2207 22.7793C33.4791 22.0376 33.0584 21.0344 33.0493 19.9856C33.0402 18.9368 33.4434 17.9264 34.172 17.172L39.828 22.828Z" fill="#48CAE4"/>
<path d="M29.828 22.828C29.0736 23.5566 28.0632 23.9598 27.0144 23.9507C25.9656 23.9416 24.9624 23.5209 24.2207 22.7793C23.4791 22.0376 23.0584 21.0344 23.0493 19.9856C23.0402 18.9368 23.4434 17.9264 24.172 17.172L29.828 22.828Z" fill="#48CAE4"/>
<path d="M45.88 20.78L45.83 20.83C45.0777 21.5776 44.0606 21.9981 43 22V16H44V18C44.0006 18.598 44.1799 19.1821 44.5149 19.6775C44.8499 20.1728 45.3253 20.5568 45.88 20.78V20.78Z" fill="#EDB88E"/>
<path d="M18.12 20.78L18.17 20.83C18.9223 21.5776 19.9394 21.9981 21 22V16H20V18C19.9994 18.598 19.8201 19.1821 19.4851 19.6775C19.1501 20.1728 18.6747 20.5568 18.12 20.78V20.78Z" fill="#DA9367"/>
<path d="M34 20C33.7348 20 33.4805 19.8946 33.293 19.707C32.9498 19.3647 32.4848 19.1724 32 19.1724C31.5152 19.1724 31.0502 19.3647 30.707 19.707C30.5184 19.8892 30.2658 19.99 30.0036 19.9877C29.7414 19.9854 29.4906 19.8802 29.3052 19.6948C29.1198 19.5094 29.0146 19.2586 29.0123 18.9964C29.01 18.7342 29.1108 18.4816 29.293 18.293C30.0114 17.576 30.985 17.1733 32 17.1733C33.015 17.1733 33.9886 17.576 34.707 18.293C34.8468 18.4329 34.942 18.611 34.9806 18.805C35.0191 18.9989 34.9993 19.2 34.9237 19.3827C34.848 19.5654 34.7199 19.7215 34.5555 19.8314C34.391 19.9413 34.1977 20 34 20Z" fill="#00B4D8"/>
<path d="M32 28.912C30.7343 28.9115 29.4971 28.5356 28.445 27.832C28.2243 27.6848 28.0712 27.456 28.0192 27.1959C27.9673 26.9358 28.0208 26.6657 28.168 26.445C28.3152 26.2243 28.544 26.0712 28.8041 26.0192C29.0642 25.9673 29.3343 26.0208 29.555 26.168C30.2787 26.6517 31.1296 26.9099 32 26.9099C32.8704 26.9099 33.7213 26.6517 34.445 26.168C34.5543 26.0951 34.6768 26.0445 34.8056 26.019C34.9345 25.9934 35.0671 25.9935 35.1959 26.0192C35.3247 26.045 35.4471 26.0958 35.5563 26.1689C35.6654 26.2419 35.7591 26.3357 35.832 26.445C35.9049 26.5543 35.9555 26.6768 35.9811 26.8056C36.0066 26.9345 36.0065 27.0671 35.9808 27.1959C35.955 27.3247 35.9042 27.4471 35.8312 27.5563C35.7581 27.6654 35.6643 27.7591 35.555 27.832C34.5029 28.5356 33.2657 28.9115 32 28.912V28.912Z" fill="#EF5350"/>
<path d="M33 53.6V62H31V52.89C31.6418 53.1917 32.3117 53.4295 33 53.6V53.6Z" fill="#48CAE4"/>
</svg>
